<svg width="235" height="63" viewBox="0 0 235 63" fill="none" xmlns="http://www.w3.org/2000/svg">
<path d="M11.7528 47.4741C12.8016 47.4741 13.7888 47.0731 14.7142 46.271C15.6396 45.469 16.1023 44.451 16.1023 43.2171C16.1023 41.9832 15.6705 40.9344 14.8067 40.0707C13.943 39.207 12.925 38.7751 11.7528 38.7751C9.03827 38.7751 7.68099 40.2249 7.68099 43.1246C7.68099 46.0242 9.03827 47.4741 11.7528 47.4741ZM14.4366 20.7294C14.4366 19.6806 13.5111 19.1562 11.6603 19.1562C9.87115 19.1562 8.97658 19.8348 8.97658 21.1921C8.97658 22.6728 9.80946 23.4131 11.4752 23.4131C12.2155 23.4131 12.8633 23.1664 13.4186 22.6728C13.9738 22.1792 14.3132 21.5315 14.4366 20.7294ZM40.0707 39.608C40.3792 40.41 40.5951 41.0578 40.7185 41.5514C40.8419 41.9832 41.0578 42.4151 41.3663 42.847C42.847 45.4998 44.667 46.8263 46.8263 46.8263C49.0473 46.8263 50.8364 45.7466 52.1937 43.5873C53.6127 41.3663 54.3222 39.1144 54.3222 36.8317C54.3222 34.549 53.6435 32.2972 52.2863 30.0762C50.929 27.8552 49.0164 26.7447 46.5486 26.7447L43.7724 26.8372V20.1742L46.9188 19.9891C50.8056 19.9891 54.1062 21.6548 56.8208 24.9864C59.5354 28.3179 60.8927 32.3897 60.8927 37.2019C60.8927 41.9524 59.3811 45.9934 56.3581 49.3249C53.3351 52.5947 49.7568 54.2296 45.6232 54.2296C41.4897 54.2296 38.2507 52.8724 35.9063 50.1578L35.6287 49.8802C33.0992 52.7181 29.7677 54.1371 25.6341 54.1371C24.7704 54.1371 23.6291 53.8286 22.2101 53.2117C20.9762 52.533 20.2359 51.8235 19.9891 51.0832C18.0149 53.2425 14.8376 54.3222 10.4573 54.3222C7.06404 54.3222 4.44202 53.15 2.59118 50.8056C0.863726 48.8314 0 46.3944 0 43.4948C0 40.5334 0.987115 38.0348 2.96135 35.9989C5.18235 33.4077 8.35963 32.1121 12.4932 32.1121C15.5162 32.1121 18.1074 33.2843 20.2667 35.6287C22.4877 37.9731 23.5982 40.7185 23.5982 43.8649C23.5982 45.0371 24.6162 45.6232 26.6521 45.6232C28.7497 45.6232 30.4772 44.2968 31.8345 41.6439C33.0684 39.3612 33.6853 36.585 33.6853 33.3151C33.6853 29.9836 32.3589 26.9297 29.706 24.1535C27.1148 21.3155 24.3694 19.8965 21.4698 19.8965C21.4698 22.7962 20.606 25.0481 18.8786 26.6521C16.966 28.3179 14.6833 29.1507 12.0305 29.1507C9.37759 29.1507 7.15658 28.6263 5.36744 27.5775C3.57829 26.0969 2.68372 24.3694 2.68372 22.3952C2.68372 18.385 4.50371 15.5471 8.1437 13.8813C7.46506 12.7708 7.12574 11.1359 7.12574 8.97658C7.12574 6.75557 8.20539 4.71965 10.3647 2.86881C12.524 0.95627 15.0844 0 18.0457 0C22.1792 0 25.3257 1.51152 27.485 4.53456C29.2124 6.69387 30.0762 8.79149 30.0762 10.8274H22.1175C22.1175 7.98946 20.6986 6.57049 17.8606 6.57049C15.5162 6.57049 14.344 7.80438 14.344 10.2722C14.344 11.1359 14.5908 12.0922 15.0844 13.141L17.8606 13.0484C22.7962 13.0484 26.8989 14.0972 30.1687 16.1949C37.0785 21.007 40.5334 27.5467 40.5334 35.8138L40.0707 39.608Z" fill="#1EAF5B"/>
<path d="M162.659 38.0348C162.659 36.7392 162.412 35.8446 161.919 35.3511C161.487 34.7958 160.469 34.5182 158.865 34.5182C156.829 34.5182 155.811 35.7829 155.811 38.3124C155.811 40.8419 156.829 42.1066 158.865 42.1066C159.79 42.1066 160.592 41.7056 161.271 40.9036C162.011 40.0399 162.474 39.0836 162.659 38.0348ZM107.781 62.4659H100.193V54.1371H107.781V62.4659ZM118.609 21.3772C123.976 24.8938 126.66 30.2613 126.66 37.4795V39.0527L127.956 42.847C129.066 45.4998 130.886 46.8263 133.416 46.8263C135.39 46.8263 137.056 45.7466 138.413 43.5873C139.77 41.3663 140.449 39.0836 140.449 36.7392C140.449 34.3331 139.832 32.2355 138.598 30.4463C137.179 27.9785 135.205 26.7447 132.675 26.7447H129.806V19.9891L158.032 19.8965C162.536 19.8965 165.99 21.7782 168.397 25.5416C170.186 28.2562 171.08 31.0016 171.08 33.7778C171.08 37.7263 169.908 41.1195 167.564 43.9575C165.281 46.7337 162.32 48.1219 158.68 48.1219C156.273 48.1219 154.083 47.1656 152.109 45.2531C150.135 43.3405 149.148 41.027 149.148 38.3124C149.148 35.5978 150.104 33.346 152.017 31.5568C153.991 29.7677 156.335 28.8731 159.05 28.8731C160.284 28.8731 161.332 29.0582 162.196 29.4284C161.641 28.1945 160.777 27.3924 159.605 27.0223L154.978 26.7447H144.243C146.094 30.0145 147.019 33.747 147.019 37.9422C147.019 42.1375 145.539 45.9009 142.577 49.2324C139.616 52.5639 136.007 54.2296 131.75 54.2296C127.555 54.2296 124.346 52.8724 122.125 50.1578L121.478 49.7876C118.516 52.5639 114.907 53.952 110.65 53.952C109.355 53.952 108.182 53.6435 107.134 53.0266C106.949 52.9649 106.116 52.132 104.635 50.528C102.044 52.934 98.99 54.1371 95.4734 54.1371C92.0185 54.1371 89.3965 53.0883 87.6073 50.9907C85.7565 49.2015 84.831 46.8263 84.831 43.8649C84.831 38.7443 87.669 35.2585 93.3449 33.4077L96.9541 32.3897C98.0646 31.8345 98.6198 30.9399 98.6198 29.706C98.6198 27.7318 97.5402 26.7447 95.3808 26.7447C92.4195 26.7447 90.9388 28.2253 90.9388 31.1867H84.646C84.646 23.845 88.3785 20.1742 95.8436 20.1742C98.6815 20.1742 100.964 21.0379 102.692 22.7653C104.481 24.4311 105.375 26.7138 105.375 29.6135C105.375 32.4514 104.234 34.6724 101.951 36.2765L95.6585 39.0527C93.4375 40.1016 92.327 41.5514 92.327 43.4022C92.327 44.3276 92.6971 45.1605 93.4375 45.9009C94.2395 46.6412 95.3191 47.0114 96.6764 47.0114C99.0208 47.0114 100.44 45.9626 100.933 43.8649C100.995 43.4948 101.026 43.0321 101.026 42.4768C101.026 41.9215 100.964 41.3663 100.841 40.811H108.244V42.5693C108.244 43.9266 108.799 44.9754 109.91 45.7158C111.082 46.3944 112.193 46.7954 113.241 46.9188C115.154 46.9188 116.758 45.8392 118.054 43.6798C119.411 41.4588 120.09 39.1144 120.09 36.6466C120.09 32.2663 118.393 28.9657 115 26.7447C114.013 26.0043 112.47 25.5416 110.373 25.3565L109.632 25.0789C107.905 24.8938 106.455 24.1226 105.283 22.7653C103.74 21.1613 102.969 18.8786 102.969 15.9172C103.093 15.6088 103.216 15.4545 103.339 15.4545H109.077C109.447 15.7013 109.632 15.9172 109.632 16.1023L109.447 16.565C109.447 17.3671 109.725 18.0765 110.28 18.6935C111.576 20.3593 113.149 20.0508 115 17.7681C115.802 16.6576 116.48 15.7938 117.036 15.1769C117.653 14.5599 118.177 14.0047 118.609 13.5111C120.336 11.9688 122.28 11.1976 124.439 11.1976C125.303 11.1976 126.321 11.4752 127.493 12.0305L127.771 12.4006V17.7681C127.462 18.0765 127.246 18.2308 127.123 18.2308L125.642 17.3979C125.519 17.3362 124.994 17.182 124.069 16.9352C122.897 16.9352 121.663 17.7989 120.367 19.5264L118.609 21.3772Z" fill="#1EAF5B"/>
<path d="M185.25 47.4741C186.299 47.4741 187.286 47.0731 188.212 46.271C189.137 45.469 189.6 44.451 189.6 43.2171C189.6 41.9832 189.168 40.9344 188.304 40.0707C187.44 39.207 186.422 38.7751 185.25 38.7751C182.536 38.7751 181.178 40.2249 181.178 43.1246C181.178 46.0242 182.536 47.4741 185.25 47.4741ZM187.934 20.7294C187.934 19.6806 187.008 19.1562 185.158 19.1562C183.369 19.1562 182.474 19.8348 182.474 21.1921C182.474 22.6728 183.307 23.4131 184.973 23.4131C185.713 23.4131 186.361 23.1664 186.916 22.6728C187.471 22.1792 187.811 21.5315 187.934 20.7294ZM213.846 38.7751L215.234 42.847C216.468 45.4998 218.164 46.8263 220.324 46.8263C222.545 46.8263 224.334 45.7466 225.691 43.5873C227.11 41.3663 227.82 39.1144 227.82 36.8317C227.82 34.549 227.141 32.2972 225.784 30.0762C224.426 27.8552 222.514 26.7447 220.046 26.7447L217.27 26.8372V20.1742L220.416 19.9891C224.303 19.9891 227.604 21.6548 230.318 24.9864C233.033 28.3179 234.39 32.3897 234.39 37.2019C234.39 41.9524 232.878 45.9934 229.855 49.3249C226.832 52.5947 223.254 54.2296 219.121 54.2296C214.987 54.2296 211.748 52.8724 209.404 50.1578L209.126 49.8802C206.597 52.7181 203.265 54.1371 199.131 54.1371C198.268 54.1371 197.126 53.8286 195.707 53.2117C194.474 52.533 193.733 51.8235 193.486 51.0832C191.512 53.2425 188.335 54.3222 183.955 54.3222C180.561 54.3222 177.939 53.15 176.089 50.8056C174.361 48.8314 173.497 46.3944 173.497 43.4948C173.497 40.5334 174.484 38.0348 176.459 35.9989C178.68 33.4077 181.857 32.1121 185.991 32.1121C189.014 32.1121 191.605 33.2843 193.764 35.6287C195.985 37.9731 197.096 40.7185 197.096 43.8649C197.096 45.0371 198.114 45.6232 200.149 45.6232C202.247 45.6232 203.975 44.2968 205.332 41.6439C206.566 39.3612 207.183 36.585 207.183 33.3151C207.183 29.9836 205.856 26.9297 203.203 24.1535C200.612 21.3155 197.867 19.8965 194.967 19.8965C194.967 22.7962 194.103 25.0481 192.376 26.6521C190.463 28.3179 188.181 29.1507 185.528 29.1507C182.875 29.1507 180.654 28.6263 178.865 27.5775C177.076 26.0969 176.181 24.3694 176.181 22.3952C176.181 16.2257 180.315 13.141 188.582 13.141C195.553 13.141 200.581 14.1589 203.666 16.1949C210.576 21.007 214.031 27.5467 214.031 35.8138C214.031 37.1094 213.969 38.0965 213.846 38.7751Z" fill="#1EAF5B"/>
</svg>